<?xml version="1.0" encoding="UTF-8" standalone="no" ?>
<!DOCTYPE svg PUBLIC "-//W3C//DTD SVG 1.1//EN" "http://www.w3.org/Graphics/SVG/1.1/DTD/svg11.dtd">
<svg xmlns="http://www.w3.org/2000/svg" xmlns:xlink="http://www.w3.org/1999/xlink" version="1.1" width="1080" height="1080" viewBox="0 0 1080 1080" xml:space="preserve">
<desc>Created with Fabric.js 5.2.4</desc>
<defs>
</defs>
<g transform="matrix(1 0 0 1 540 540)" id="31750e83-07be-4076-af2d-85905967f349"  >
<rect style="stroke: none; stroke-width: 1; stroke-dasharray: none; stroke-linecap: butt; stroke-dashoffset: 0; stroke-linejoin: miter; stroke-miterlimit: 4; fill: rgb(255,255,255); fill-rule: nonzero; opacity: 1; visibility: hidden;" vector-effect="non-scaling-stroke"  x="-540" y="-540" rx="0" ry="0" width="1080" height="1080" />
</g>
<g transform="matrix(1 0 0 1 540 540)" id="8beb0f95-de1e-4fe2-8ec3-6addb84e0f80"  >
</g>
<g transform="matrix(1 0 0 1 556.54 470.81)"  >
<rect style="stroke: none; stroke-width: 1; stroke-dasharray: none; stroke-linecap: butt; stroke-dashoffset: 0; stroke-linejoin: miter; stroke-miterlimit: 4; fill: rgb(255,255,255); fill-rule: nonzero; opacity: 1; visibility: hidden;" vector-effect="non-scaling-stroke"  x="-540" y="-540" rx="0" ry="0" width="1080" height="1080" />
</g>
<g transform="matrix(12.56 0 0 12.56 540.33 537.83)"  >
<path style="stroke: rgb(255,255,255); stroke-width: 0; stroke-dasharray: none; stroke-linecap: butt; stroke-dashoffset: 0; stroke-linejoin: miter; stroke-miterlimit: 4; fill: rgb(255,255,255); fill-rule: nonzero; opacity: 1;" vector-effect="non-scaling-stroke"  transform=" translate(-50, -50)" d="M 90.375 90.375 L 9.625 90.375 L 9.625 9.625 L 90.375 9.625 L 90.375 90.375 z M 11.625 88.375 L 88.375 88.375 L 88.375 11.625 L 11.625 11.625 L 11.625 88.375 z" stroke-linecap="round" />
</g>
<g transform="matrix(1 0 0 1 306.7 540)"  >
<path style="stroke: rgb(0,0,0); stroke-width: 0; stroke-dasharray: none; stroke-linecap: butt; stroke-dashoffset: 0; stroke-linejoin: miter; stroke-miterlimit: 4; fill: rgb(255,255,255); fill-rule: nonzero; opacity: 1;" vector-effect="non-scaling-stroke"  transform=" translate(-256, -256)" d="M 120.16 45 C 109.02639691629608 45.00110435978435 100.00110435978434 54.02639691629609 100 65.16000000000001 L 100 446.84000000000003 C 100.00110435978436 457.97360308370395 109.0263969162961 466.99889564021566 120.16 467 L 185.84 467 C 196.97360308370392 466.99889564021566 205.99889564021566 457.9736030837039 206 446.84 L 206 65.16 C 205.99889564021564 54.02639691629608 196.9736030837039 45.001104359784335 185.83999999999997 45 L 120.16 45 z M 326.15999999999997 45 C 315.02639691629605 45.00110435978437 306.00110435978434 54.026396916296115 306 65.16000000000001 L 306 446.84000000000003 C 306.00110435978434 457.97360308370395 315.0263969162961 466.99889564021566 326.16 467 L 391.84000000000003 467 C 402.97360308370395 466.99889564021566 411.99889564021566 457.9736030837039 412 446.84 L 412 65.16 C 411.99889564021566 54.02639691629608 402.9736030837039 45.00110435978433 391.84 45 L 326.15999999999997 45 z" stroke-linecap="round" />
</g>
<g transform="matrix(1 0 0 1 779.4 555.04)"  >
<path style="stroke: rgb(0,0,0); stroke-width: 0; stroke-dasharray: none; stroke-linecap: butt; stroke-dashoffset: 0; stroke-linejoin: miter; stroke-miterlimit: 4; fill: rgb(255,255,255); fill-rule: nonzero; opacity: 1;" vector-effect="non-scaling-stroke"  transform=" translate(-249.64, -256)" d="M 208 151 C 180 151 147.622 168.102 117.008 188.512 C 86.393 208.922 58.16799999999999 233.106 41.63799999999999 249.637 L 35.27 256 L 41.637 262.363 C 58.167 278.89300000000003 86.393 303.079 117.007 323.488 C 147.623 343.898 180 361 208 361 L 211.73 361 L 214.363 358.363 C 223.007 349.72 230.15 339.743 235.853 328.89300000000003 C 215.383 327.81500000000005 198.937 318.783 188.086 305.76300000000003 C 176.512 291.872 171 273.874 171 256 C 171 238.125 176.512 220.127 188.086 206.238 C 198.936 193.218 215.383 184.185 235.854 183.108 C 230.15 172.258 223.007 162.28 214.364 153.638 L 211.728 151 L 208 151 z M 240 201 C 222.4 201 210.34 207.65 201.914 217.762 C 193.488 227.872 189 241.875 189 256 C 189 270.125 193.488 284.127 201.914 294.238 C 210.34 304.348 222.4 311 240 311 L 243.7 311 C 245.58999999999997 305.724 247.185 300.315 248.49599999999998 294.818 C 245.99599999999998 296.178 243.17199999999997 297 239.99999999999997 297 C 230.71799999999996 297 224.34999999999997 290.08 220.63699999999997 282.652 C 216.92199999999997 275.224 214.99999999999997 266.05199999999996 214.99999999999997 256 C 214.99999999999997 245.947 216.92199999999997 236.776 220.63699999999997 229.348 C 224.35 221.918 230.717 215 240 215 C 243.172 215 245.995 215.822 248.496 217.182 C 247.186 211.685 245.591 206.27599999999998 243.699 201 L 240 201 z M 416 208 L 416 240 L 320 240 L 320 272 L 416 272 L 416 304 L 464 256 L 416 208 z M 248 224 C 243.58172200135365 224 240 231.1634440027073 240 240 C 240 248.8365559972927 243.58172200135365 256 248 256 C 252.41827799864635 256 256 248.8365559972927 256 240 C 256 231.1634440027073 252.41827799864635 224 248 224 z" stroke-linecap="round" />
</g>
</svg>